<?xml version="1.0" standalone="no"?>
<!DOCTYPE svg PUBLIC "-//W3C//DTD SVG 20010904//EN"
 "http://www.w3.org/TR/2001/REC-SVG-20010904/DTD/svg10.dtd">
<svg version="1.0" xmlns="http://www.w3.org/2000/svg"
 width="512.000000pt" height="512.000000pt" viewBox="0 0 512.000000 512.000000"
 preserveAspectRatio="xMidYMid meet">

<g transform="translate(0.000000,512.000000) scale(0.100000,-0.100000)"
fill="#000000" stroke="none">
<path d="M2047 5104 c-180 -33 -322 -109 -462 -249 -105 -105 -145 -163 -200
-292 -81 -189 -87 -433 -16 -637 57 -161 202 -356 265 -356 31 0 72 34 80 65
8 32 -5 56 -66 125 -28 31 -69 95 -93 145 -200 416 9 888 455 1026 108 34 292
34 400 0 213 -66 365 -197 461 -396 96 -199 92 -432 -10 -640 -22 -44 -62
-105 -89 -135 -61 -69 -74 -93 -66 -125 8 -32 49 -65 82 -65 55 0 195 184 251
328 57 149 76 331 50 478 -86 491 -553 817 -1042 728z"/>
<path d="M2103 4566 c-95 -31 -186 -117 -225 -214 l-23 -57 -5 -967 -5 -968
-115 152 c-121 160 -178 214 -275 259 -245 116 -511 0 -532 -231 -8 -84 24
-180 92 -278 275 -394 340 -518 495 -947 105 -289 155 -386 289 -550 77 -96
143 -230 165 -337 10 -50 16 -130 16 -228 0 -147 1 -152 25 -175 29 -30 74
-32 106 -6 24 19 24 21 23 208 0 309 -42 422 -259 703 -85 111 -127 198 -224
466 -144 397 -244 590 -462 895 -89 124 -113 178 -106 238 9 82 104 141 206
127 58 -8 138 -45 183 -85 20 -17 118 -140 219 -272 101 -133 194 -248 206
-256 26 -17 75 -10 95 14 10 13 14 226 18 1117 l5 1101 23 43 c83 155 314 128
361 -43 7 -28 11 -318 11 -932 l0 -892 26 -20 c35 -28 67 -26 101 3 l28 24 5
204 c5 189 7 205 28 240 59 95 237 106 315 20 38 -42 46 -90 47 -280 0 -181 0
-183 25 -207 33 -33 70 -32 106 4 l29 29 0 174 c0 186 7 227 42 266 76 80 230
83 300 5 40 -44 48 -86 48 -262 0 -185 6 -213 50 -231 56 -23 110 14 110 75 0
82 39 154 100 185 85 43 190 13 238 -68 l27 -47 3 -487 c2 -388 0 -506 -12
-585 -30 -197 -108 -385 -222 -534 -35 -46 -82 -107 -104 -136 -132 -173 -180
-334 -180 -609 0 -162 0 -165 25 -189 33 -33 70 -32 106 4 l29 29 0 159 c0 99
6 184 15 228 21 100 91 234 181 345 98 120 135 179 195 304 58 122 93 240 114
383 13 90 15 194 13 613 l-3 505 -27 57 c-35 76 -98 142 -167 175 -49 24 -68
28 -146 28 -71 0 -100 -5 -137 -22 l-47 -21 -11 50 c-34 162 -171 268 -345
268 -87 0 -164 -25 -228 -74 l-42 -32 -48 37 c-110 87 -265 104 -409 44 -16
-6 -17 32 -20 597 l-3 603 -31 65 c-63 132 -168 203 -309 207 -47 2 -97 -3
-122 -11z"/>
</g>
</svg>
